<?xml version="1.0" encoding="utf-8"?>
<!-- Svg Vector Icons : http://www.onlinewebfonts.com/icon -->
<!DOCTYPE svg PUBLIC "-//W3C//DTD SVG 1.1//EN" "http://www.w3.org/Graphics/SVG/1.1/DTD/svg11.dtd">
<svg version="1.1" xmlns="http://www.w3.org/2000/svg" xmlns:xlink="http://www.w3.org/1999/xlink" x="0px" y="0px" viewBox="0 0 256 256" enable-background="new 0 0 256 256" xml:space="preserve">
<metadata> Svg Vector Icons : http://www.onlinewebfonts.com/icon </metadata>
<g><g><path fill="#000000" d="M246,55.1c0-5.3-4.3-9.6-9.6-9.6H58.8l-5-23.6c-0.2-0.9-0.5-1.8-1-2.6c-1.2-3.9-4.9-6.7-9.2-6.7H19.6c-5.3,0-9.6,4.3-9.6,9.6c0,5.3,4.3,9.6,9.6,9.6h16.7L67,176.4c0.9,4.3,4.5,7.2,8.6,7.6c0.9,0.3,1.8,0.4,2.7,0.4h125.1c5.3,0,9.6-4.3,9.6-9.6c0-5.3-4.3-9.6-9.6-9.6H84.3L79,140.5h129.8c2.3,0,4.4-0.8,6-2.1c1.6-1.1,2.9-2.6,3.6-4.6l26.3-72.4c0.3-0.9,0.5-1.8,0.6-2.7C245.8,57.6,246,56.4,246,55.1z M202.5,121.3H74.9l-12-56.5h160.2L202.5,121.3z"/><path fill="#000000" d="M74.8,224.2c0,10.6,8.6,19.2,19.2,19.2c10.6,0,19.2-8.6,19.2-19.2c0-10.6-8.6-19.2-19.2-19.2C83.4,204.9,74.8,213.5,74.8,224.2L74.8,224.2z"/><path fill="#000000" d="M166.2,224.2c0,10.6,8.6,19.2,19.2,19.2c10.6,0,19.2-8.6,19.2-19.2c0-10.6-8.6-19.2-19.2-19.2C174.8,204.9,166.2,213.5,166.2,224.2z"/></g></g>
</svg>